<svg xmlns="http://www.w3.org/2000/svg" width="29" height="29" viewBox="0 0 29 29">
  <path id="instagram" d="M8.521,28.912A10.719,10.719,0,0,1,5,28.238a7.111,7.111,0,0,1-2.569-1.673A7.109,7.109,0,0,1,.761,24a10.733,10.733,0,0,1-.674-3.52C.016,18.913,0,18.394,0,14.5s.017-4.414.087-5.978A10.733,10.733,0,0,1,.761,5,7.112,7.112,0,0,1,2.433,2.433,7.112,7.112,0,0,1,5,.761,10.733,10.733,0,0,1,8.521.086C10.085.016,10.6,0,14.5,0s4.414.017,5.979.087A10.733,10.733,0,0,1,24,.761a7.109,7.109,0,0,1,2.568,1.672A7.111,7.111,0,0,1,28.238,5a10.719,10.719,0,0,1,.673,3.52c.07,1.545.087,2.059.087,5.978s-.017,4.433-.087,5.979A10.719,10.719,0,0,1,28.238,24,7.424,7.424,0,0,1,24,28.238a10.719,10.719,0,0,1-3.52.673c-1.546.07-2.061.087-5.979.087S10.067,28.982,8.521,28.912ZM8.577,2.57a8.129,8.129,0,0,0-2.721.5,4.528,4.528,0,0,0-1.685,1.1,4.528,4.528,0,0,0-1.1,1.685,8.129,8.129,0,0,0-.5,2.721C2.5,10.139,2.485,10.6,2.485,14.5s.015,4.361.086,5.922a8.13,8.13,0,0,0,.5,2.722,4.535,4.535,0,0,0,1.1,1.685,4.536,4.536,0,0,0,1.685,1.1,8.1,8.1,0,0,0,2.721.5c1.542.07,2,.086,5.922.086s4.38-.015,5.922-.086a8.1,8.1,0,0,0,2.722-.5,4.854,4.854,0,0,0,2.781-2.781,8.1,8.1,0,0,0,.5-2.722c.07-1.542.086-2,.086-5.922s-.015-4.38-.086-5.922a9.14,9.14,0,0,0-.333-2.225A2.486,2.486,0,1,1,22.645,2.9a9.141,9.141,0,0,0-2.224-.334c-1.562-.07-2.028-.086-5.922-.086S10.139,2.5,8.577,2.57ZM7.457,14.914a7.457,7.457,0,1,1,7.457,7.457A7.466,7.466,0,0,1,7.457,14.914Zm2.486,0a4.971,4.971,0,1,0,4.972-4.972A4.977,4.977,0,0,0,9.942,14.914Z" transform="translate(0.001 0.001)"/>
</svg>
