<svg xmlns="http://www.w3.org/2000/svg" width="27" height="24" viewBox="0 0 27 24">
  <path id="Vimeo" d="M26.986,5.549q-.176,4.057-5.5,11.094Q15.978,24,12.162,24,9.8,24,8.171,19.516,7.078,15.4,5.991,11.287,4.777,6.8,3.388,6.8A8.293,8.293,0,0,0,1.27,8.108L0,6.422q2-1.8,3.935-3.612Q6.593.44,7.928.314,11.071,0,11.8,4.739q.779,5.114,1.086,6.36.91,4.239,2,4.235.845,0,2.542-2.739a10.94,10.94,0,0,0,1.815-4.178c.162-1.58-.443-2.365-1.815-2.365a5.028,5.028,0,0,0-2,.435q2-6.67,7.626-6.482,4.17.12,3.929,5.544" transform="translate(0 0)"/>
</svg>
