<svg xmlns="http://www.w3.org/2000/svg" width="34" height="24" viewBox="0 0 34 24">
  <path id="youtube" d="M17,24h0c-.088,0-8.871-.084-11.561-.344-.128-.024-.282-.042-.46-.064a5.006,5.006,0,0,1-3.29-1.4A7.436,7.436,0,0,1,.34,18.811,52.15,52.15,0,0,1,0,13.289V10.7A52.249,52.249,0,0,1,.34,5.177,7.441,7.441,0,0,1,1.69,1.79,4.68,4.68,0,0,1,4.88.368C4.959.36,5.032.353,5.1.346,9.8,0,16.922,0,16.993,0h.014C17.079,0,24.2,0,28.9.346c.065.008.138.015.218.023A4.676,4.676,0,0,1,32.308,1.79,7.452,7.452,0,0,1,33.66,5.177,52.2,52.2,0,0,1,34,10.7v2.589a52.2,52.2,0,0,1-.34,5.522A7.451,7.451,0,0,1,32.308,22.2a4.678,4.678,0,0,1-3.186,1.423c-.08.008-.154.015-.22.023C24.2,23.985,17.072,24,17,24ZM14.1,7.448v9.931l7.463-4.948Z" transform="translate(0 0)"/>
</svg>
